%TF.GenerationSoftware,KiCad,Pcbnew,(6.0.1)*%
%TF.CreationDate,2022-03-26T18:04:58-07:00*%
%TF.ProjectId,data_logger_wsu_racing_v0.3.kicad_pro,64617461-5f6c-46f6-9767-65725f777375,rev?*%
%TF.SameCoordinates,Original*%
%TF.FileFunction,Legend,Bot*%
%TF.FilePolarity,Positive*%
%FSLAX46Y46*%
G04 Gerber Fmt 4.6, Leading zero omitted, Abs format (unit mm)*
G04 Created by KiCad (PCBNEW (6.0.1)) date 2022-03-26 18:04:58*
%MOMM*%
%LPD*%
G01*
G04 APERTURE LIST*
%ADD10C,0.300000*%
%ADD11C,0.150000*%
G04 APERTURE END LIST*
D10*
X105390000Y-119253142D02*
X105318571Y-119181714D01*
X105104285Y-119038857D01*
X104961428Y-118967428D01*
X104747142Y-118896000D01*
X104390000Y-118824571D01*
X104104285Y-118824571D01*
X103747142Y-118896000D01*
X103532857Y-118967428D01*
X103390000Y-119038857D01*
X103175714Y-119181714D01*
X103104285Y-119253142D01*
X104247142Y-119824571D02*
X104247142Y-120967428D01*
X105390000Y-121538857D02*
X105318571Y-121610285D01*
X105104285Y-121753142D01*
X104961428Y-121824571D01*
X104747142Y-121896000D01*
X104390000Y-121967428D01*
X104104285Y-121967428D01*
X103747142Y-121896000D01*
X103532857Y-121824571D01*
X103390000Y-121753142D01*
X103175714Y-121610285D01*
X103104285Y-121538857D01*
D11*
X65603428Y-61070217D02*
X65603428Y-60308312D01*
X55443428Y-53212952D02*
X55443428Y-52451047D01*
X118483047Y-73096380D02*
X119054476Y-73096380D01*
X118768761Y-73096380D02*
X118768761Y-72096380D01*
X118864000Y-72239238D01*
X118959238Y-72334476D01*
X119054476Y-72382095D01*
X118054476Y-73096380D02*
X118054476Y-72096380D01*
X117959238Y-72715428D02*
X117673523Y-73096380D01*
X117673523Y-72429714D02*
X118054476Y-72810666D01*
X61812742Y-64891010D02*
X61812742Y-64129105D01*
X106012026Y-49399115D02*
X106012026Y-48922925D01*
X105726312Y-49494353D02*
X106726312Y-49161020D01*
X105726312Y-48827687D01*
X106726312Y-48303877D02*
X106726312Y-48208639D01*
X106678693Y-48113401D01*
X106631073Y-48065782D01*
X106535835Y-48018163D01*
X106345359Y-47970544D01*
X106107264Y-47970544D01*
X105916788Y-48018163D01*
X105821550Y-48065782D01*
X105773931Y-48113401D01*
X105726312Y-48208639D01*
X105726312Y-48303877D01*
X105773931Y-48399115D01*
X105821550Y-48446734D01*
X105916788Y-48494353D01*
X106107264Y-48541972D01*
X106345359Y-48541972D01*
X106535835Y-48494353D01*
X106631073Y-48446734D01*
X106678693Y-48399115D01*
X106726312Y-48303877D01*
X79279820Y-66078939D02*
X79327439Y-66126558D01*
X79422677Y-66269415D01*
X79470296Y-66364653D01*
X79517916Y-66507511D01*
X79565535Y-66745606D01*
X79565535Y-66936082D01*
X79517916Y-67174177D01*
X79470296Y-67317034D01*
X79422677Y-67412273D01*
X79327439Y-67555130D01*
X79279820Y-67602749D01*
X78898868Y-66840844D02*
X78136963Y-66840844D01*
X77756011Y-66078939D02*
X77708392Y-66126558D01*
X77613154Y-66269415D01*
X77565535Y-66364653D01*
X77517916Y-66507511D01*
X77470296Y-66745606D01*
X77470296Y-66936082D01*
X77517916Y-67174177D01*
X77565535Y-67317034D01*
X77613154Y-67412273D01*
X77708392Y-67555130D01*
X77756011Y-67602749D01*
X83891428Y-63372952D02*
X83891428Y-62611047D01*
X115487621Y-60675013D02*
X115487621Y-61151203D01*
X115773335Y-60579775D02*
X114773335Y-60913108D01*
X115773335Y-61246441D01*
X114773335Y-62008346D02*
X114773335Y-61817870D01*
X114820955Y-61722632D01*
X114868574Y-61675013D01*
X115011431Y-61579775D01*
X115201907Y-61532156D01*
X115582859Y-61532156D01*
X115678097Y-61579775D01*
X115725716Y-61627394D01*
X115773335Y-61722632D01*
X115773335Y-61913108D01*
X115725716Y-62008346D01*
X115678097Y-62055965D01*
X115582859Y-62103584D01*
X115344764Y-62103584D01*
X115249526Y-62055965D01*
X115201907Y-62008346D01*
X115154288Y-61913108D01*
X115154288Y-61722632D01*
X115201907Y-61627394D01*
X115249526Y-61579775D01*
X115344764Y-61532156D01*
X115487621Y-67021552D02*
X115487621Y-67497742D01*
X115773335Y-66926314D02*
X114773335Y-67259647D01*
X115773335Y-67592980D01*
X114773335Y-67831076D02*
X114773335Y-68497742D01*
X115773335Y-68069171D01*
X74012619Y-63626666D02*
X74012619Y-64198095D01*
X74012619Y-63912380D02*
X75012619Y-63912380D01*
X74869761Y-64007619D01*
X74774523Y-64102857D01*
X74726904Y-64198095D01*
X74917380Y-63245714D02*
X74965000Y-63198095D01*
X75012619Y-63102857D01*
X75012619Y-62864761D01*
X74965000Y-62769523D01*
X74917380Y-62721904D01*
X74822142Y-62674285D01*
X74726904Y-62674285D01*
X74584047Y-62721904D01*
X74012619Y-63293333D01*
X74012619Y-62674285D01*
X74679285Y-62340952D02*
X74012619Y-62102857D01*
X74679285Y-61864761D01*
X74393571Y-61483809D02*
X74393571Y-60721904D01*
X74679285Y-60245714D02*
X74393571Y-59483809D01*
X74107857Y-60245714D01*
X75012619Y-58531428D02*
X75012619Y-59007619D01*
X74536428Y-59055238D01*
X74584047Y-59007619D01*
X74631666Y-58912380D01*
X74631666Y-58674285D01*
X74584047Y-58579047D01*
X74536428Y-58531428D01*
X74441190Y-58483809D01*
X74203095Y-58483809D01*
X74107857Y-58531428D01*
X74060238Y-58579047D01*
X74012619Y-58674285D01*
X74012619Y-58912380D01*
X74060238Y-59007619D01*
X74107857Y-59055238D01*
X74679285Y-58150476D02*
X74012619Y-57912380D01*
X74679285Y-57674285D01*
X72926428Y-66150476D02*
X72878809Y-66007619D01*
X72831190Y-65960000D01*
X72735952Y-65912380D01*
X72593095Y-65912380D01*
X72497857Y-65960000D01*
X72450238Y-66007619D01*
X72402619Y-66102857D01*
X72402619Y-66483809D01*
X73402619Y-66483809D01*
X73402619Y-66150476D01*
X73355000Y-66055238D01*
X73307380Y-66007619D01*
X73212142Y-65960000D01*
X73116904Y-65960000D01*
X73021666Y-66007619D01*
X72974047Y-66055238D01*
X72926428Y-66150476D01*
X72926428Y-66483809D01*
X73069285Y-65055238D02*
X72402619Y-65055238D01*
X73069285Y-65483809D02*
X72545476Y-65483809D01*
X72450238Y-65436190D01*
X72402619Y-65340952D01*
X72402619Y-65198095D01*
X72450238Y-65102857D01*
X72497857Y-65055238D01*
X72450238Y-64150476D02*
X72402619Y-64245714D01*
X72402619Y-64436190D01*
X72450238Y-64531428D01*
X72497857Y-64579047D01*
X72593095Y-64626666D01*
X72878809Y-64626666D01*
X72974047Y-64579047D01*
X73021666Y-64531428D01*
X73069285Y-64436190D01*
X73069285Y-64245714D01*
X73021666Y-64150476D01*
X72402619Y-63721904D02*
X73402619Y-63721904D01*
X72783571Y-63626666D02*
X72402619Y-63340952D01*
X73069285Y-63340952D02*
X72688333Y-63721904D01*
X72402619Y-61579047D02*
X72878809Y-61912380D01*
X72402619Y-62150476D02*
X73402619Y-62150476D01*
X73402619Y-61769523D01*
X73355000Y-61674285D01*
X73307380Y-61626666D01*
X73212142Y-61579047D01*
X73069285Y-61579047D01*
X72974047Y-61626666D01*
X72926428Y-61674285D01*
X72878809Y-61769523D01*
X72878809Y-62150476D01*
X72450238Y-60769523D02*
X72402619Y-60864761D01*
X72402619Y-61055238D01*
X72450238Y-61150476D01*
X72545476Y-61198095D01*
X72926428Y-61198095D01*
X73021666Y-61150476D01*
X73069285Y-61055238D01*
X73069285Y-60864761D01*
X73021666Y-60769523D01*
X72926428Y-60721904D01*
X72831190Y-60721904D01*
X72735952Y-61198095D01*
X73069285Y-59864761D02*
X72259761Y-59864761D01*
X72164523Y-59912380D01*
X72116904Y-59960000D01*
X72069285Y-60055238D01*
X72069285Y-60198095D01*
X72116904Y-60293333D01*
X72450238Y-59864761D02*
X72402619Y-59960000D01*
X72402619Y-60150476D01*
X72450238Y-60245714D01*
X72497857Y-60293333D01*
X72593095Y-60340952D01*
X72878809Y-60340952D01*
X72974047Y-60293333D01*
X73021666Y-60245714D01*
X73069285Y-60150476D01*
X73069285Y-59960000D01*
X73021666Y-59864761D01*
X73069285Y-58960000D02*
X72402619Y-58960000D01*
X73069285Y-59388571D02*
X72545476Y-59388571D01*
X72450238Y-59340952D01*
X72402619Y-59245714D01*
X72402619Y-59102857D01*
X72450238Y-59007619D01*
X72497857Y-58960000D01*
X72402619Y-58340952D02*
X72450238Y-58436190D01*
X72545476Y-58483809D01*
X73402619Y-58483809D01*
X72402619Y-57531428D02*
X72926428Y-57531428D01*
X73021666Y-57579047D01*
X73069285Y-57674285D01*
X73069285Y-57864761D01*
X73021666Y-57960000D01*
X72450238Y-57531428D02*
X72402619Y-57626666D01*
X72402619Y-57864761D01*
X72450238Y-57960000D01*
X72545476Y-58007619D01*
X72640714Y-58007619D01*
X72735952Y-57960000D01*
X72783571Y-57864761D01*
X72783571Y-57626666D01*
X72831190Y-57531428D01*
X73069285Y-57198095D02*
X73069285Y-56817142D01*
X73402619Y-57055238D02*
X72545476Y-57055238D01*
X72450238Y-57007619D01*
X72402619Y-56912380D01*
X72402619Y-56817142D01*
X72402619Y-56340952D02*
X72450238Y-56436190D01*
X72497857Y-56483809D01*
X72593095Y-56531428D01*
X72878809Y-56531428D01*
X72974047Y-56483809D01*
X73021666Y-56436190D01*
X73069285Y-56340952D01*
X73069285Y-56198095D01*
X73021666Y-56102857D01*
X72974047Y-56055238D01*
X72878809Y-56007619D01*
X72593095Y-56007619D01*
X72497857Y-56055238D01*
X72450238Y-56102857D01*
X72402619Y-56198095D01*
X72402619Y-56340952D01*
X72402619Y-55579047D02*
X73069285Y-55579047D01*
X72878809Y-55579047D02*
X72974047Y-55531428D01*
X73021666Y-55483809D01*
X73069285Y-55388571D01*
X73069285Y-55293333D01*
X85094677Y-110890989D02*
X85094677Y-110129084D01*
X106012026Y-68458783D02*
X106012026Y-67982593D01*
X105726312Y-68554021D02*
X106726312Y-68220688D01*
X105726312Y-67887355D01*
X106726312Y-67649259D02*
X106726312Y-67030212D01*
X106345359Y-67363545D01*
X106345359Y-67220688D01*
X106297740Y-67125450D01*
X106250121Y-67077831D01*
X106154883Y-67030212D01*
X105916788Y-67030212D01*
X105821550Y-67077831D01*
X105773931Y-67125450D01*
X105726312Y-67220688D01*
X105726312Y-67506402D01*
X105773931Y-67601640D01*
X105821550Y-67649259D01*
X59983619Y-54474857D02*
X59983619Y-54665333D01*
X59936000Y-54760571D01*
X59888380Y-54808190D01*
X59745523Y-54903428D01*
X59555047Y-54951047D01*
X59174095Y-54951047D01*
X59078857Y-54903428D01*
X59031238Y-54855809D01*
X58983619Y-54760571D01*
X58983619Y-54570095D01*
X59031238Y-54474857D01*
X59078857Y-54427238D01*
X59174095Y-54379619D01*
X59412190Y-54379619D01*
X59507428Y-54427238D01*
X59555047Y-54474857D01*
X59602666Y-54570095D01*
X59602666Y-54760571D01*
X59555047Y-54855809D01*
X59507428Y-54903428D01*
X59412190Y-54951047D01*
X59555047Y-53808190D02*
X59602666Y-53903428D01*
X59650285Y-53951047D01*
X59745523Y-53998666D01*
X59793142Y-53998666D01*
X59888380Y-53951047D01*
X59936000Y-53903428D01*
X59983619Y-53808190D01*
X59983619Y-53617714D01*
X59936000Y-53522476D01*
X59888380Y-53474857D01*
X59793142Y-53427238D01*
X59745523Y-53427238D01*
X59650285Y-53474857D01*
X59602666Y-53522476D01*
X59555047Y-53617714D01*
X59555047Y-53808190D01*
X59507428Y-53903428D01*
X59459809Y-53951047D01*
X59364571Y-53998666D01*
X59174095Y-53998666D01*
X59078857Y-53951047D01*
X59031238Y-53903428D01*
X58983619Y-53808190D01*
X58983619Y-53617714D01*
X59031238Y-53522476D01*
X59078857Y-53474857D01*
X59174095Y-53427238D01*
X59364571Y-53427238D01*
X59459809Y-53474857D01*
X59507428Y-53522476D01*
X59555047Y-53617714D01*
X59983619Y-52808190D02*
X59983619Y-52712952D01*
X59936000Y-52617714D01*
X59888380Y-52570095D01*
X59793142Y-52522476D01*
X59602666Y-52474857D01*
X59364571Y-52474857D01*
X59174095Y-52522476D01*
X59078857Y-52570095D01*
X59031238Y-52617714D01*
X58983619Y-52712952D01*
X58983619Y-52808190D01*
X59031238Y-52903428D01*
X59078857Y-52951047D01*
X59174095Y-52998666D01*
X59364571Y-53046285D01*
X59602666Y-53046285D01*
X59793142Y-52998666D01*
X59888380Y-52951047D01*
X59936000Y-52903428D01*
X59983619Y-52808190D01*
X59650285Y-51617714D02*
X58983619Y-51617714D01*
X59650285Y-52046285D02*
X59126476Y-52046285D01*
X59031238Y-51998666D01*
X58983619Y-51903428D01*
X58983619Y-51760571D01*
X59031238Y-51665333D01*
X59078857Y-51617714D01*
X59507428Y-50808190D02*
X59507428Y-51141523D01*
X58983619Y-51141523D02*
X59983619Y-51141523D01*
X59983619Y-50665333D01*
X85161428Y-66166952D02*
X85161428Y-65405047D01*
X106012026Y-62112245D02*
X106012026Y-61636055D01*
X105726312Y-62207483D02*
X106726312Y-61874150D01*
X105726312Y-61540817D01*
X106631073Y-61255102D02*
X106678693Y-61207483D01*
X106726312Y-61112245D01*
X106726312Y-60874150D01*
X106678693Y-60778912D01*
X106631073Y-60731293D01*
X106535835Y-60683674D01*
X106440597Y-60683674D01*
X106297740Y-60731293D01*
X105726312Y-61302721D01*
X105726312Y-60683674D01*
X115482666Y-48561714D02*
X115482666Y-49037904D01*
X115768380Y-48466476D02*
X114768380Y-48799809D01*
X115768380Y-49133142D01*
X115101714Y-49895047D02*
X115768380Y-49895047D01*
X114720761Y-49656952D02*
X115435047Y-49418857D01*
X115435047Y-50037904D01*
X69525410Y-81131247D02*
X69525410Y-80369342D01*
D10*
X92261428Y-101178571D02*
X92261428Y-100321428D01*
X90761428Y-100750000D02*
X92261428Y-100750000D01*
X90832857Y-99250000D02*
X90761428Y-99392857D01*
X90761428Y-99678571D01*
X90832857Y-99821428D01*
X90975714Y-99892857D01*
X91547142Y-99892857D01*
X91690000Y-99821428D01*
X91761428Y-99678571D01*
X91761428Y-99392857D01*
X91690000Y-99250000D01*
X91547142Y-99178571D01*
X91404285Y-99178571D01*
X91261428Y-99892857D01*
X90832857Y-97964285D02*
X90761428Y-98107142D01*
X90761428Y-98392857D01*
X90832857Y-98535714D01*
X90975714Y-98607142D01*
X91547142Y-98607142D01*
X91690000Y-98535714D01*
X91761428Y-98392857D01*
X91761428Y-98107142D01*
X91690000Y-97964285D01*
X91547142Y-97892857D01*
X91404285Y-97892857D01*
X91261428Y-98607142D01*
X91761428Y-97250000D02*
X90761428Y-97250000D01*
X91618571Y-97250000D02*
X91690000Y-97178571D01*
X91761428Y-97035714D01*
X91761428Y-96821428D01*
X91690000Y-96678571D01*
X91547142Y-96607142D01*
X90761428Y-96607142D01*
X90832857Y-95964285D02*
X90761428Y-95821428D01*
X90761428Y-95535714D01*
X90832857Y-95392857D01*
X90975714Y-95321428D01*
X91047142Y-95321428D01*
X91190000Y-95392857D01*
X91261428Y-95535714D01*
X91261428Y-95750000D01*
X91332857Y-95892857D01*
X91475714Y-95964285D01*
X91547142Y-95964285D01*
X91690000Y-95892857D01*
X91761428Y-95750000D01*
X91761428Y-95535714D01*
X91690000Y-95392857D01*
X91761428Y-94821428D02*
X90761428Y-94464285D01*
X91761428Y-94107142D02*
X90761428Y-94464285D01*
X90404285Y-94607142D01*
X90332857Y-94678571D01*
X90261428Y-94821428D01*
X91761428Y-91750000D02*
X90761428Y-91750000D01*
X92332857Y-92107142D02*
X91261428Y-92464285D01*
X91261428Y-91535714D01*
X90904285Y-90964285D02*
X90832857Y-90892857D01*
X90761428Y-90964285D01*
X90832857Y-91035714D01*
X90904285Y-90964285D01*
X90761428Y-90964285D01*
X90761428Y-89464285D02*
X90761428Y-90321428D01*
X90761428Y-89892857D02*
X92261428Y-89892857D01*
X92047142Y-90035714D01*
X91904285Y-90178571D01*
X91832857Y-90321428D01*
D11*
X90876380Y-122515047D02*
X90924000Y-122467428D01*
X90971619Y-122372190D01*
X90971619Y-122134095D01*
X90924000Y-122038857D01*
X90876380Y-121991238D01*
X90781142Y-121943619D01*
X90685904Y-121943619D01*
X90543047Y-121991238D01*
X89971619Y-122562666D01*
X89971619Y-121943619D01*
X90876380Y-121562666D02*
X90924000Y-121515047D01*
X90971619Y-121419809D01*
X90971619Y-121181714D01*
X90924000Y-121086476D01*
X90876380Y-121038857D01*
X90781142Y-120991238D01*
X90685904Y-120991238D01*
X90543047Y-121038857D01*
X89971619Y-121610285D01*
X89971619Y-120991238D01*
X90971619Y-120372190D02*
X90971619Y-120276952D01*
X90924000Y-120181714D01*
X90876380Y-120134095D01*
X90781142Y-120086476D01*
X90590666Y-120038857D01*
X90352571Y-120038857D01*
X90162095Y-120086476D01*
X90066857Y-120134095D01*
X90019238Y-120181714D01*
X89971619Y-120276952D01*
X89971619Y-120372190D01*
X90019238Y-120467428D01*
X90066857Y-120515047D01*
X90162095Y-120562666D01*
X90352571Y-120610285D01*
X90590666Y-120610285D01*
X90781142Y-120562666D01*
X90876380Y-120515047D01*
X90924000Y-120467428D01*
X90971619Y-120372190D01*
X90638285Y-119181714D02*
X89971619Y-119181714D01*
X90638285Y-119610285D02*
X90114476Y-119610285D01*
X90019238Y-119562666D01*
X89971619Y-119467428D01*
X89971619Y-119324571D01*
X90019238Y-119229333D01*
X90066857Y-119181714D01*
X90495428Y-118372190D02*
X90495428Y-118705523D01*
X89971619Y-118705523D02*
X90971619Y-118705523D01*
X90971619Y-118229333D01*
D10*
X80746902Y-72854793D02*
X79604045Y-72854793D01*
X80175474Y-73426222D02*
X80175474Y-72283365D01*
D11*
X91570333Y-111315238D02*
X91570333Y-110839047D01*
X91284619Y-111410476D02*
X92284619Y-111077142D01*
X91284619Y-110743809D01*
X91379857Y-109839047D02*
X91332238Y-109886666D01*
X91284619Y-110029523D01*
X91284619Y-110124761D01*
X91332238Y-110267619D01*
X91427476Y-110362857D01*
X91522714Y-110410476D01*
X91713190Y-110458095D01*
X91856047Y-110458095D01*
X92046523Y-110410476D01*
X92141761Y-110362857D01*
X92237000Y-110267619D01*
X92284619Y-110124761D01*
X92284619Y-110029523D01*
X92237000Y-109886666D01*
X92189380Y-109839047D01*
X91379857Y-108839047D02*
X91332238Y-108886666D01*
X91284619Y-109029523D01*
X91284619Y-109124761D01*
X91332238Y-109267619D01*
X91427476Y-109362857D01*
X91522714Y-109410476D01*
X91713190Y-109458095D01*
X91856047Y-109458095D01*
X92046523Y-109410476D01*
X92141761Y-109362857D01*
X92237000Y-109267619D01*
X92284619Y-109124761D01*
X92284619Y-109029523D01*
X92237000Y-108886666D01*
X92189380Y-108839047D01*
X91808428Y-108410476D02*
X91808428Y-108077142D01*
X91284619Y-107934285D02*
X91284619Y-108410476D01*
X92284619Y-108410476D01*
X92284619Y-107934285D01*
X91284619Y-107029523D02*
X91284619Y-107505714D01*
X92284619Y-107505714D01*
X90198428Y-110886666D02*
X90150809Y-110743809D01*
X90103190Y-110696190D01*
X90007952Y-110648571D01*
X89865095Y-110648571D01*
X89769857Y-110696190D01*
X89722238Y-110743809D01*
X89674619Y-110839047D01*
X89674619Y-111220000D01*
X90674619Y-111220000D01*
X90674619Y-110886666D01*
X90627000Y-110791428D01*
X90579380Y-110743809D01*
X90484142Y-110696190D01*
X90388904Y-110696190D01*
X90293666Y-110743809D01*
X90246047Y-110791428D01*
X90198428Y-110886666D01*
X90198428Y-111220000D01*
X89769857Y-110220000D02*
X89722238Y-110172380D01*
X89674619Y-110220000D01*
X89722238Y-110267619D01*
X89769857Y-110220000D01*
X89674619Y-110220000D01*
X90674619Y-109553333D02*
X90674619Y-109362857D01*
X90627000Y-109267619D01*
X90531761Y-109172380D01*
X90341285Y-109124761D01*
X90007952Y-109124761D01*
X89817476Y-109172380D01*
X89722238Y-109267619D01*
X89674619Y-109362857D01*
X89674619Y-109553333D01*
X89722238Y-109648571D01*
X89817476Y-109743809D01*
X90007952Y-109791428D01*
X90341285Y-109791428D01*
X90531761Y-109743809D01*
X90627000Y-109648571D01*
X90674619Y-109553333D01*
X89769857Y-108696190D02*
X89722238Y-108648571D01*
X89674619Y-108696190D01*
X89722238Y-108743809D01*
X89769857Y-108696190D01*
X89674619Y-108696190D01*
X90198428Y-107886666D02*
X90150809Y-107743809D01*
X90103190Y-107696190D01*
X90007952Y-107648571D01*
X89865095Y-107648571D01*
X89769857Y-107696190D01*
X89722238Y-107743809D01*
X89674619Y-107839047D01*
X89674619Y-108220000D01*
X90674619Y-108220000D01*
X90674619Y-107886666D01*
X90627000Y-107791428D01*
X90579380Y-107743809D01*
X90484142Y-107696190D01*
X90388904Y-107696190D01*
X90293666Y-107743809D01*
X90246047Y-107791428D01*
X90198428Y-107886666D01*
X90198428Y-108220000D01*
X89769857Y-107220000D02*
X89722238Y-107172380D01*
X89674619Y-107220000D01*
X89722238Y-107267619D01*
X89769857Y-107220000D01*
X89674619Y-107220000D01*
X88542666Y-48712380D02*
X89114095Y-48712380D01*
X88828380Y-48712380D02*
X88828380Y-47712380D01*
X88923619Y-47855238D01*
X89018857Y-47950476D01*
X89114095Y-47998095D01*
X88161714Y-47807619D02*
X88114095Y-47760000D01*
X88018857Y-47712380D01*
X87780761Y-47712380D01*
X87685523Y-47760000D01*
X87637904Y-47807619D01*
X87590285Y-47902857D01*
X87590285Y-47998095D01*
X87637904Y-48140952D01*
X88209333Y-48712380D01*
X87590285Y-48712380D01*
X86971238Y-47712380D02*
X86876000Y-47712380D01*
X86780761Y-47760000D01*
X86733142Y-47807619D01*
X86685523Y-47902857D01*
X86637904Y-48093333D01*
X86637904Y-48331428D01*
X86685523Y-48521904D01*
X86733142Y-48617142D01*
X86780761Y-48664761D01*
X86876000Y-48712380D01*
X86971238Y-48712380D01*
X87066476Y-48664761D01*
X87114095Y-48617142D01*
X87161714Y-48521904D01*
X87209333Y-48331428D01*
X87209333Y-48093333D01*
X87161714Y-47902857D01*
X87114095Y-47807619D01*
X87066476Y-47760000D01*
X86971238Y-47712380D01*
X85637904Y-48712380D02*
X85971238Y-48236190D01*
X86209333Y-48712380D02*
X86209333Y-47712380D01*
X85828380Y-47712380D01*
X85733142Y-47760000D01*
X85685523Y-47807619D01*
X85637904Y-47902857D01*
X85637904Y-48045714D01*
X85685523Y-48140952D01*
X85733142Y-48188571D01*
X85828380Y-48236190D01*
X86209333Y-48236190D01*
X83505857Y-59824857D02*
X83458238Y-59872476D01*
X83410619Y-60015333D01*
X83410619Y-60110571D01*
X83458238Y-60253428D01*
X83553476Y-60348666D01*
X83648714Y-60396285D01*
X83839190Y-60443904D01*
X83982047Y-60443904D01*
X84172523Y-60396285D01*
X84267761Y-60348666D01*
X84363000Y-60253428D01*
X84410619Y-60110571D01*
X84410619Y-60015333D01*
X84363000Y-59872476D01*
X84315380Y-59824857D01*
X83696333Y-59443904D02*
X83696333Y-58967714D01*
X83410619Y-59539142D02*
X84410619Y-59205809D01*
X83410619Y-58872476D01*
X83410619Y-58539142D02*
X84410619Y-58539142D01*
X83410619Y-57967714D01*
X84410619Y-57967714D01*
X82800619Y-63301047D02*
X82800619Y-62729619D01*
X81800619Y-63015333D02*
X82800619Y-63015333D01*
X81800619Y-62396285D02*
X82467285Y-62396285D01*
X82276809Y-62396285D02*
X82372047Y-62348666D01*
X82419666Y-62301047D01*
X82467285Y-62205809D01*
X82467285Y-62110571D01*
X81800619Y-61348666D02*
X82324428Y-61348666D01*
X82419666Y-61396285D01*
X82467285Y-61491523D01*
X82467285Y-61682000D01*
X82419666Y-61777238D01*
X81848238Y-61348666D02*
X81800619Y-61443904D01*
X81800619Y-61682000D01*
X81848238Y-61777238D01*
X81943476Y-61824857D01*
X82038714Y-61824857D01*
X82133952Y-61777238D01*
X82181571Y-61682000D01*
X82181571Y-61443904D01*
X82229190Y-61348666D01*
X82467285Y-60872476D02*
X81800619Y-60872476D01*
X82372047Y-60872476D02*
X82419666Y-60824857D01*
X82467285Y-60729619D01*
X82467285Y-60586761D01*
X82419666Y-60491523D01*
X82324428Y-60443904D01*
X81800619Y-60443904D01*
X81848238Y-60015333D02*
X81800619Y-59920095D01*
X81800619Y-59729619D01*
X81848238Y-59634380D01*
X81943476Y-59586761D01*
X81991095Y-59586761D01*
X82086333Y-59634380D01*
X82133952Y-59729619D01*
X82133952Y-59872476D01*
X82181571Y-59967714D01*
X82276809Y-60015333D01*
X82324428Y-60015333D01*
X82419666Y-59967714D01*
X82467285Y-59872476D01*
X82467285Y-59729619D01*
X82419666Y-59634380D01*
X81848238Y-58729619D02*
X81800619Y-58824857D01*
X81800619Y-59015333D01*
X81848238Y-59110571D01*
X81895857Y-59158190D01*
X81991095Y-59205809D01*
X82276809Y-59205809D01*
X82372047Y-59158190D01*
X82419666Y-59110571D01*
X82467285Y-59015333D01*
X82467285Y-58824857D01*
X82419666Y-58729619D01*
X81848238Y-57920095D02*
X81800619Y-58015333D01*
X81800619Y-58205809D01*
X81848238Y-58301047D01*
X81943476Y-58348666D01*
X82324428Y-58348666D01*
X82419666Y-58301047D01*
X82467285Y-58205809D01*
X82467285Y-58015333D01*
X82419666Y-57920095D01*
X82324428Y-57872476D01*
X82229190Y-57872476D01*
X82133952Y-58348666D01*
X81800619Y-57443904D02*
X82467285Y-57443904D01*
X82800619Y-57443904D02*
X82753000Y-57491523D01*
X82705380Y-57443904D01*
X82753000Y-57396285D01*
X82800619Y-57443904D01*
X82705380Y-57443904D01*
X82467285Y-57062952D02*
X81800619Y-56824857D01*
X82467285Y-56586761D01*
X81848238Y-55824857D02*
X81800619Y-55920095D01*
X81800619Y-56110571D01*
X81848238Y-56205809D01*
X81943476Y-56253428D01*
X82324428Y-56253428D01*
X82419666Y-56205809D01*
X82467285Y-56110571D01*
X82467285Y-55920095D01*
X82419666Y-55824857D01*
X82324428Y-55777238D01*
X82229190Y-55777238D01*
X82133952Y-56253428D01*
X81800619Y-55348666D02*
X82467285Y-55348666D01*
X82276809Y-55348666D02*
X82372047Y-55301047D01*
X82419666Y-55253428D01*
X82467285Y-55158190D01*
X82467285Y-55062952D01*
X68036482Y-47397693D02*
X68036482Y-46635788D01*
X60419453Y-61346902D02*
X60419453Y-60584997D01*
X115487621Y-54328475D02*
X115487621Y-54804665D01*
X115773335Y-54233237D02*
X114773335Y-54566570D01*
X115773335Y-54899903D01*
X114773335Y-55709427D02*
X114773335Y-55233237D01*
X115249526Y-55185618D01*
X115201907Y-55233237D01*
X115154288Y-55328475D01*
X115154288Y-55566570D01*
X115201907Y-55661808D01*
X115249526Y-55709427D01*
X115344764Y-55757046D01*
X115582859Y-55757046D01*
X115678097Y-55709427D01*
X115725716Y-55661808D01*
X115773335Y-55566570D01*
X115773335Y-55328475D01*
X115725716Y-55233237D01*
X115678097Y-55185618D01*
X106012026Y-55765706D02*
X106012026Y-55289516D01*
X105726312Y-55860944D02*
X106726312Y-55527611D01*
X105726312Y-55194278D01*
X105726312Y-54337135D02*
X105726312Y-54908563D01*
X105726312Y-54622849D02*
X106726312Y-54622849D01*
X106583454Y-54718087D01*
X106488216Y-54813325D01*
X106440597Y-54908563D01*
X112610305Y-72948104D02*
X112610305Y-72186199D01*
X106055834Y-121040992D02*
X106055834Y-120279087D01*
M02*
