M48
; DRILL file {KiCad (6.0.1)} date Sat Mar 26 18:04:46 2022
; FORMAT={-:-/ absolute / inch / decimal}
; #@! TF.CreationDate,2022-03-26T18:04:46-07:00
; #@! TF.GenerationSoftware,Kicad,Pcbnew,(6.0.1)
; #@! TF.FileFunction,Plated,1,2,PTH
FMAT,2
INCH
; #@! TA.AperFunction,Plated,PTH,ComponentDrill
T1C0.0236
; #@! TA.AperFunction,Plated,PTH,ComponentDrill
T2C0.0315
; #@! TA.AperFunction,Plated,PTH,ComponentDrill
T3C0.0350
; #@! TA.AperFunction,Plated,PTH,ComponentDrill
T4C0.0354
; #@! TA.AperFunction,Plated,PTH,ComponentDrill
T5C0.0362
; #@! TA.AperFunction,Plated,PTH,ComponentDrill
T6C0.0394
; #@! TA.AperFunction,Plated,PTH,ComponentDrill
T7C0.0400
; #@! TA.AperFunction,Plated,PTH,ComponentDrill
T8C0.0433
; #@! TA.AperFunction,Plated,PTH,ComponentDrill
T9C0.0472
; #@! TA.AperFunction,Plated,PTH,ComponentDrill
T10C0.0512
; #@! TA.AperFunction,Plated,PTH,ComponentDrill
T11C0.0917
; #@! TA.AperFunction,Plated,PTH,ComponentDrill
T12C0.1260
; #@! TA.AperFunction,Plated,PTH,ComponentDrill
T13C0.2570
%
G90
G05
T1
X2.1728Y-1.37
X2.1728Y-4.6
X2.2247Y-1.2447
X2.2247Y-1.4953
X2.2247Y-4.4747
X2.2247Y-4.7253
X2.35Y-1.1928
X2.35Y-1.5472
X2.35Y-4.4228
X2.35Y-4.7772
X2.4753Y-1.2447
X2.4753Y-1.4953
X2.4753Y-4.4747
X2.4753Y-4.7253
X2.5272Y-1.37
X2.5272Y-4.6
X3.3728Y-3.03
X3.4247Y-2.9047
X3.4247Y-3.1553
X3.55Y-2.8528
X3.55Y-3.2072
X3.6753Y-2.9047
X3.6753Y-3.1553
X3.7272Y-3.03
X4.4728Y-1.37
X4.4728Y-4.6
X4.5247Y-1.2447
X4.5247Y-1.4953
X4.5247Y-4.4747
X4.5247Y-4.7253
X4.65Y-1.1928
X4.65Y-1.5472
X4.65Y-4.4228
X4.65Y-4.7772
X4.7753Y-1.2447
X4.7753Y-1.4953
X4.7753Y-4.4747
X4.7753Y-4.7253
X4.8272Y-1.37
X4.8272Y-4.6
T2
X2.1816Y-2.54
X2.2293Y-2.3949
X2.3278Y-2.3949
X2.3784Y-2.54
X2.5787Y-3.6778
X2.5787Y-3.7778
X2.7966Y-3.18
X2.9934Y-3.18
X3.0606Y-3.5238
X3.0606Y-3.6025
X3.0606Y-3.6812
X3.1394Y-3.5238
X3.1394Y-3.6025
X3.1394Y-3.6812
X3.25Y-1.9
X3.3054Y-2.1796
X3.3054Y-2.4796
X3.3516Y-2.055
X3.4054Y-2.1796
X3.4054Y-2.4796
X3.4062Y-2.5958
X3.5046Y-2.5958
X3.5054Y-2.1796
X3.5054Y-2.4796
X3.5484Y-2.055
X3.6054Y-2.1796
X3.6054Y-2.4796
X3.65Y-1.9
X3.8493Y-1.8575
X3.8493Y-1.9775
X3.8493Y-2.1075
X3.8493Y-2.2275
X3.8493Y-2.3575
X3.8493Y-2.4775
X3.8493Y-2.6075
X3.8493Y-2.7275
X4.2493Y-1.8575
X4.2493Y-1.9775
X4.2493Y-2.1075
X4.2493Y-2.2275
X4.2493Y-2.3575
X4.2493Y-2.4775
X4.2493Y-2.6075
X4.2493Y-2.7275
X4.4793Y-1.8575
X4.4793Y-1.9775
X4.4793Y-2.1075
X4.4793Y-2.2275
X4.4793Y-2.3575
X4.4793Y-2.4775
X4.4793Y-2.6075
X4.4793Y-2.7275
X4.4793Y-2.8575
X4.8793Y-1.8575
X4.8793Y-1.9775
X4.8793Y-2.1075
X4.8793Y-2.2275
X4.8793Y-2.3575
X4.8793Y-2.4775
X4.8793Y-2.6075
X4.8793Y-2.7275
X4.8793Y-2.8575
T3
X2.7256Y-1.851
X3.0606Y-1.969
T4
X4.7793Y-3.02
X4.8793Y-3.02
T5
X2.5302Y-2.9408
X2.5302Y-3.0392
X2.609Y-2.9408
X2.609Y-3.0392
T6
X2.2364Y-2.08
X2.4332Y-2.08
X3.1191Y-1.6925
X3.1736Y-1.5807
X3.2281Y-1.6925
X3.2827Y-1.5807
X3.3372Y-1.6925
X3.3917Y-1.5807
X3.4463Y-1.6925
X3.5008Y-1.5807
X3.5553Y-1.6925
X3.6098Y-1.5807
X3.6644Y-1.6925
X3.7189Y-1.5807
X3.7734Y-1.6925
X3.828Y-1.5807
X3.8825Y-1.6925
T7
X3.4Y-4.15
X3.4Y-4.25
X3.4Y-4.35
X3.4Y-4.45
X3.8Y-4.15
X3.8Y-4.25
X3.8Y-4.35
X3.8Y-4.45
T8
X2.55Y-3.4278
X2.55Y-4.0278
X2.6363Y-2.2561
X2.6363Y-2.39
X2.6363Y-2.5239
X2.65Y-3.4278
X2.65Y-3.5278
X2.65Y-4.0278
X2.75Y-3.4278
X2.75Y-4.0278
X2.76Y-2.09
X2.782Y-2.3231
X2.782Y-2.4569
X2.798Y-3.9076
X2.85Y-3.4278
X2.85Y-4.0278
X2.898Y-3.9076
X2.95Y-3.4278
X2.95Y-4.0278
X2.998Y-3.9076
X3.05Y-3.4278
X3.05Y-4.0278
X3.06Y-2.09
X3.092Y-2.2531
X3.092Y-2.5531
X3.098Y-3.9076
X3.15Y-3.4278
X3.15Y-4.0278
X3.198Y-3.9076
X3.25Y-3.4278
X3.25Y-4.0278
X3.35Y-3.4278
X3.35Y-4.0278
X3.45Y-3.4278
X3.45Y-4.0278
X3.55Y-3.4278
X3.55Y-4.0278
X3.65Y-3.4278
X3.65Y-4.0278
X3.75Y-3.4278
X3.75Y-4.0278
X3.85Y-3.4278
X3.85Y-4.0278
X3.95Y-3.4278
X3.95Y-4.0278
X4.05Y-3.4278
X4.05Y-4.0278
X4.15Y-3.4278
X4.15Y-4.0278
X4.25Y-3.4278
X4.25Y-4.0278
X4.35Y-3.4278
X4.35Y-3.5278
X4.35Y-3.6278
X4.35Y-3.7278
X4.35Y-3.8278
X4.35Y-3.9278
X4.35Y-4.0278
X4.45Y-3.4278
X4.45Y-4.0278
X4.55Y-3.4278
X4.55Y-4.0278
X4.65Y-3.4278
X4.65Y-4.0278
X4.75Y-3.4278
X4.75Y-4.0278
X4.85Y-3.4278
X4.85Y-4.0278
T9
X2.831Y-4.74
X4.209Y-4.74
T10
X2.8716Y-2.87
X3.0684Y-2.87
T11
X2.4235Y-2.753
X2.4235Y-3.227
T12
X2.8453Y-1.6366
X4.1563Y-1.6366
T13
X2.35Y-1.37
X2.35Y-4.6
X3.55Y-3.03
X4.65Y-1.37
X4.65Y-4.6
T0
M30
